<svg width="119" height="19" viewBox="0 0 119 19" fill="none" xmlns="http://www.w3.org/2000/svg">
<rect y="1" width="17" height="6" fill="black"/>
<rect x="17" y="1" width="17" height="6" transform="rotate(90 17 1)" fill="black"/>
<rect x="6" y="1" width="11" height="11" fill="black"/>
<path d="M25.6055 18V1.08984H29.0859L34.2539 14.0273H34.3477L39.5156 1.08984H42.9961V18H40.2773V5.96484H38.8711L41.9414 1.55859L35.332 18H33.2695L26.6602 1.55859L29.7188 5.96484H28.3242V18H25.6055ZM50.3125 18.2109C49.4844 18.2109 48.7578 18.0547 48.1328 17.7422C47.5078 17.4219 47.0195 16.9805 46.668 16.418C46.3164 15.8477 46.1406 15.1914 46.1406 14.4492V14.4258C46.1406 13.6836 46.3242 13.0469 46.6914 12.5156C47.0664 11.9766 47.6055 11.5547 48.3086 11.25C49.0195 10.9375 49.875 10.75 50.875 10.6875L55.6328 10.4062V12.3281L51.2969 12.6094C50.5625 12.6484 50 12.8164 49.6094 13.1133C49.2266 13.4102 49.0352 13.8086 49.0352 14.3086V14.332C49.0352 14.8398 49.2305 15.2422 49.6211 15.5391C50.0195 15.8359 50.5391 15.9844 51.1797 15.9844C51.7422 15.9844 52.2461 15.8711 52.6914 15.6445C53.1367 15.418 53.4883 15.1094 53.7461 14.7188C54.0039 14.3203 54.1328 13.875 54.1328 13.3828V9.58594C54.1328 8.96094 53.9336 8.47266 53.5352 8.12109C53.1445 7.76172 52.5742 7.58203 51.8242 7.58203C51.1367 7.58203 50.5859 7.72266 50.1719 8.00391C49.7578 8.27734 49.4961 8.64062 49.3867 9.09375L49.3633 9.1875H46.6562L46.668 9.05859C46.7383 8.32422 46.9883 7.67188 47.418 7.10156C47.8555 6.53125 48.457 6.08203 49.2227 5.75391C49.9883 5.41797 50.8906 5.25 51.9297 5.25C52.9844 5.25 53.8906 5.42188 54.6484 5.76562C55.4141 6.10938 56.0039 6.59375 56.418 7.21875C56.8398 7.84375 57.0508 8.57812 57.0508 9.42188V18H54.1328V16.1133H54.0508C53.8164 16.543 53.5078 16.918 53.125 17.2383C52.75 17.5508 52.3242 17.793 51.8477 17.9648C51.3711 18.1289 50.8594 18.2109 50.3125 18.2109ZM65.293 18.2109C63.9648 18.2109 62.9844 17.9336 62.3516 17.3789C61.7266 16.8164 61.4141 15.8984 61.4141 14.625V7.75781H59.6094V5.50781H61.4141V2.35547H64.3789V5.50781H66.7578V7.75781H64.3789V14.3086C64.3789 14.9258 64.5117 15.3555 64.7773 15.5977C65.043 15.832 65.4492 15.9492 65.9961 15.9492C66.1523 15.9492 66.2891 15.9453 66.4062 15.9375C66.5234 15.9219 66.6406 15.9102 66.7578 15.9023V18.0938C66.5781 18.125 66.3633 18.1523 66.1133 18.1758C65.8633 18.1992 65.5898 18.2109 65.293 18.2109ZM75.1758 18.2461C73.9336 18.2461 72.8633 17.9844 71.9648 17.4609C71.0664 16.9375 70.375 16.1914 69.8906 15.2227C69.4141 14.2539 69.1758 13.1094 69.1758 11.7891V11.7773C69.1758 10.4648 69.418 9.32031 69.9023 8.34375C70.3867 7.36719 71.0664 6.60938 71.9414 6.07031C72.8164 5.52344 73.8477 5.25 75.0352 5.25C76.2305 5.25 77.2578 5.51172 78.1172 6.03516C78.9844 6.55859 79.6484 7.29297 80.1094 8.23828C80.5781 9.17578 80.8125 10.2734 80.8125 11.5312V12.4688H70.6172V10.5234H79.418L78.0117 12.3398V11.2148C78.0117 10.3945 77.8867 9.71484 77.6367 9.17578C77.3867 8.62891 77.0391 8.21875 76.5938 7.94531C76.1562 7.67188 75.6484 7.53516 75.0703 7.53516C74.4922 7.53516 73.9766 7.67578 73.5234 7.95703C73.0703 8.23828 72.7148 8.65234 72.457 9.19922C72.1992 9.74609 72.0703 10.418 72.0703 11.2148V12.3516C72.0703 13.1094 72.1992 13.7578 72.457 14.2969C72.7148 14.8359 73.0781 15.25 73.5469 15.5391C74.0234 15.8281 74.5859 15.9727 75.2344 15.9727C75.7266 15.9727 76.1562 15.8984 76.5234 15.75C76.8984 15.5938 77.2031 15.3984 77.4375 15.1641C77.6797 14.9219 77.8438 14.668 77.9297 14.4023L77.9648 14.3203H80.6953L80.6719 14.4492C80.5703 14.9102 80.3789 15.3672 80.0977 15.8203C79.8242 16.2734 79.457 16.6836 78.9961 17.0508C78.543 17.418 77.9961 17.7109 77.3555 17.9297C76.7227 18.1406 75.9961 18.2461 75.1758 18.2461ZM83.8867 18V5.50781H86.793V7.61719H86.8867C87.082 6.88281 87.4336 6.30859 87.9414 5.89453C88.4492 5.47266 89.0742 5.26172 89.8164 5.26172C90.0117 5.26172 90.1914 5.27344 90.3555 5.29688C90.5273 5.32031 90.6719 5.34766 90.7891 5.37891V8.01562C90.6484 7.96094 90.4688 7.92188 90.25 7.89844C90.0391 7.86719 89.8086 7.85156 89.5586 7.85156C88.9883 7.85156 88.4961 7.96484 88.082 8.19141C87.668 8.41797 87.3477 8.75 87.1211 9.1875C86.9023 9.61719 86.793 10.1367 86.793 10.7461V18H83.8867ZM93.5117 18V5.50781H96.4297V18H93.5117ZM94.9766 3.65625C94.5156 3.65625 94.125 3.5 93.8047 3.1875C93.4844 2.86719 93.3242 2.48438 93.3242 2.03906C93.3242 1.59375 93.4844 1.21484 93.8047 0.902344C94.125 0.582031 94.5156 0.421875 94.9766 0.421875C95.4375 0.421875 95.8242 0.582031 96.1367 0.902344C96.457 1.21484 96.6172 1.59375 96.6172 2.03906C96.6172 2.48438 96.457 2.86719 96.1367 3.1875C95.8242 3.5 95.4375 3.65625 94.9766 3.65625ZM103.758 18.2109C102.93 18.2109 102.203 18.0547 101.578 17.7422C100.953 17.4219 100.465 16.9805 100.113 16.418C99.7617 15.8477 99.5859 15.1914 99.5859 14.4492V14.4258C99.5859 13.6836 99.7695 13.0469 100.137 12.5156C100.512 11.9766 101.051 11.5547 101.754 11.25C102.465 10.9375 103.32 10.75 104.32 10.6875L109.078 10.4062V12.3281L104.742 12.6094C104.008 12.6484 103.445 12.8164 103.055 13.1133C102.672 13.4102 102.48 13.8086 102.48 14.3086V14.332C102.48 14.8398 102.676 15.2422 103.066 15.5391C103.465 15.8359 103.984 15.9844 104.625 15.9844C105.188 15.9844 105.691 15.8711 106.137 15.6445C106.582 15.418 106.934 15.1094 107.191 14.7188C107.449 14.3203 107.578 13.875 107.578 13.3828V9.58594C107.578 8.96094 107.379 8.47266 106.98 8.12109C106.59 7.76172 106.02 7.58203 105.27 7.58203C104.582 7.58203 104.031 7.72266 103.617 8.00391C103.203 8.27734 102.941 8.64062 102.832 9.09375L102.809 9.1875H100.102L100.113 9.05859C100.184 8.32422 100.434 7.67188 100.863 7.10156C101.301 6.53125 101.902 6.08203 102.668 5.75391C103.434 5.41797 104.336 5.25 105.375 5.25C106.43 5.25 107.336 5.42188 108.094 5.76562C108.859 6.10938 109.449 6.59375 109.863 7.21875C110.285 7.84375 110.496 8.57812 110.496 9.42188V18H107.578V16.1133H107.496C107.262 16.543 106.953 16.918 106.57 17.2383C106.195 17.5508 105.77 17.793 105.293 17.9648C104.816 18.1289 104.305 18.2109 103.758 18.2109ZM114.145 18V0.9375H117.062V18H114.145Z" fill="black"/>
</svg>
